<?xml version="1.0" encoding="UTF-8"?>
<svg id="Calque_1" data-name="Calque 1" xmlns="http://www.w3.org/2000/svg" xmlns:xlink="http://www.w3.org/1999/xlink" viewBox="0 0 840.85 111.89">
  <defs>
    <style>
      .cls-1 {
        fill: url(#Dégradé_sans_nom_5);
      }

      .cls-2 {
        fill: url(#Dégradé_sans_nom_2);
      }

      .cls-3 {
        fill: url(#Dégradé_sans_nom_2-7);
      }

      .cls-4 {
        fill: url(#Dégradé_sans_nom_2-4);
      }

      .cls-5 {
        fill: url(#Dégradé_sans_nom_2-6);
      }

      .cls-6 {
        fill: url(#Dégradé_sans_nom_2-3);
      }

      .cls-7 {
        fill: url(#Dégradé_sans_nom_2-2);
      }

      .cls-8 {
        fill: url(#Dégradé_sans_nom_2-5);
      }

      .cls-9 {
        fill: url(#Dégradé_sans_nom_5-4);
      }

      .cls-10 {
        fill: url(#Dégradé_sans_nom_5-3);
      }

      .cls-11 {
        fill: url(#Dégradé_sans_nom_5-2);
      }
    </style>
    <linearGradient id="Dégradé_sans_nom_5" data-name="Dégradé sans nom 5" x1="25.73" y1="140.22" x2="131.3" y2="31.57" gradientUnits="userSpaceOnUse">
      <stop offset="0" stop-color="#6d28bc"/>
      <stop offset="1" stop-color="#93f"/>
    </linearGradient>
    <linearGradient id="Dégradé_sans_nom_5-2" data-name="Dégradé sans nom 5" x1="-2.49" y1="112.81" x2="103.08" y2="4.15" xlink:href="#Dégradé_sans_nom_5"/>
    <linearGradient id="Dégradé_sans_nom_5-3" data-name="Dégradé sans nom 5" x1="-1.42" y1="113.84" x2="104.15" y2="5.19" xlink:href="#Dégradé_sans_nom_5"/>
    <linearGradient id="Dégradé_sans_nom_5-4" data-name="Dégradé sans nom 5" x1="-29.64" y1="86.43" x2="75.93" y2="-22.23" xlink:href="#Dégradé_sans_nom_5"/>
    <radialGradient id="Dégradé_sans_nom_2" data-name="Dégradé sans nom 2" cx="271.45" cy="160.12" fx="271.45" fy="160.12" r="419.57" gradientUnits="userSpaceOnUse">
      <stop offset="0" stop-color="#6d28bc"/>
      <stop offset="1" stop-color="#93f"/>
    </radialGradient>
    <radialGradient id="Dégradé_sans_nom_2-2" data-name="Dégradé sans nom 2" cx="271.45" fx="271.45" r="419.57" xlink:href="#Dégradé_sans_nom_2"/>
    <radialGradient id="Dégradé_sans_nom_2-3" data-name="Dégradé sans nom 2" cx="271.45" fx="271.45" r="419.57" xlink:href="#Dégradé_sans_nom_2"/>
    <radialGradient id="Dégradé_sans_nom_2-4" data-name="Dégradé sans nom 2" cx="271.45" cy="160.12" fx="271.45" fy="160.12" r="419.57" xlink:href="#Dégradé_sans_nom_2"/>
    <radialGradient id="Dégradé_sans_nom_2-5" data-name="Dégradé sans nom 2" cx="271.45" cy="160.12" fx="271.45" fy="160.12" r="419.57" xlink:href="#Dégradé_sans_nom_2"/>
    <radialGradient id="Dégradé_sans_nom_2-6" data-name="Dégradé sans nom 2" cx="271.45" fx="271.45" r="419.57" xlink:href="#Dégradé_sans_nom_2"/>
    <radialGradient id="Dégradé_sans_nom_2-7" data-name="Dégradé sans nom 2" cx="271.45" cy="160.12" fx="271.45" fy="160.12" r="419.57" xlink:href="#Dégradé_sans_nom_2"/>
  </defs>
  <g>
    <polygon class="cls-1" points="36.57 73.14 73.14 109.71 109.71 109.71 109.71 73.14 73.14 36.57 73.14 73.14 36.57 73.14"/>
    <rect class="cls-11" y="73.14" width="36.57" height="36.57"/>
    <rect class="cls-10" x="73.14" width="36.57" height="36.57"/>
    <polygon class="cls-9" points="0 0 0 36.57 36.57 73.14 36.57 36.57 73.14 36.57 36.57 0 0 0"/>
  </g>
  <g>
    <path class="cls-2" d="M263.63,63.98c-5.08-2.1-12.1-3.52-21.05-4.26l-18.88-1.4c-4.94-.47-8.3-1.21-10.07-2.24-1.77-1.03-2.66-2.42-2.66-4.2,0-2.33,1.44-4.1,4.33-5.31,2.89-1.21,7.08-1.82,12.59-1.82,4.85,0,8.79.49,11.82,1.47,3.03.98,5.36,2.26,6.99,3.85,1.63,1.59,2.63,3.31,3.01,5.17h26.43c-.56-5.5-2.91-10.3-7.06-14.4-4.15-4.1-9.65-7.32-16.5-9.65-6.85-2.33-14.66-3.5-23.42-3.5s-16.41.98-22.94,2.94c-6.53,1.96-11.63,4.89-15.31,8.81-3.68,3.92-5.52,8.81-5.52,14.68,0,4.29,1.14,8.16,3.43,11.61,2.28,3.45,6.13,6.29,11.54,8.53,5.41,2.24,12.68,3.68,21.82,4.33l14.54,1.12c5.87.47,9.95,1.21,12.24,2.24,2.28,1.03,3.43,2.52,3.43,4.48,0,2.61-1.59,4.57-4.76,5.87-3.17,1.31-7.83,1.96-13.98,1.96-4.57,0-8.53-.44-11.89-1.33-3.36-.88-6.08-2.21-8.18-3.99-2.1-1.77-3.43-3.82-3.99-6.15h-26.43c.28,5.78,2.47,10.86,6.57,15.24,4.1,4.38,9.84,7.78,17.2,10.21,7.36,2.42,15.94,3.64,25.73,3.64s17.76-1.07,24.47-3.22c6.71-2.14,11.82-5.29,15.31-9.44,3.5-4.15,5.24-9.21,5.24-15.17,0-4.57-1.07-8.53-3.22-11.89-2.15-3.36-5.76-6.08-10.84-8.18Z"/>
    <path class="cls-7" d="M371.31,33c-5.92-3.54-12.8-5.31-20.63-5.31s-14.17,1.75-20.14,5.24c-5.62,3.3-10.32,7.83-14.12,13.56V.01h-25.87v109.63h25.87v-16.63c3.8,5.78,8.5,10.33,14.12,13.63,5.97,3.5,12.68,5.24,20.14,5.24,7.83,0,14.71-1.77,20.63-5.31,5.92-3.54,10.56-8.46,13.92-14.75,3.36-6.29,5.03-13.64,5.03-22.03s-1.68-15.73-5.03-22.03c-3.36-6.29-8-11.21-13.92-14.75ZM361.31,81.18c-1.77,3.31-4.22,5.92-7.34,7.83-3.12,1.91-6.74,2.87-10.84,2.87s-8-.96-11.68-2.87c-3.68-1.91-6.9-4.52-9.65-7.83-2.75-3.31-4.87-7.11-6.36-11.4,1.49-4.29,3.61-8.09,6.36-11.4,2.75-3.31,5.97-5.92,9.65-7.83,3.68-1.91,7.57-2.87,11.68-2.87s7.71.96,10.84,2.87c3.12,1.91,5.57,4.52,7.34,7.83,1.77,3.31,2.66,7.11,2.66,11.4s-.89,8.09-2.66,11.4Z"/>
    <path class="cls-6" d="M475.85,29.93l-2.02,16.8c-3.87-5.85-8.65-10.46-14.34-13.8-5.97-3.5-12.68-5.24-20.14-5.24-7.83,0-14.71,1.77-20.63,5.31-5.92,3.54-10.56,8.46-13.92,14.75-3.36,6.29-5.03,13.64-5.03,22.03s1.68,15.73,5.03,22.03c3.36,6.29,7.99,11.21,13.92,14.75,5.92,3.54,12.8,5.31,20.63,5.31s14.17-1.75,20.14-5.24c5.72-3.35,10.48-8,14.32-13.92l2.04,16.93h26.99l-4.89-39.86,4.89-39.86h-26.99ZM468.3,81.18c-2.8,3.31-6.04,5.92-9.72,7.83-3.68,1.91-7.58,2.87-11.68,2.87s-7.72-.96-10.84-2.87c-3.12-1.91-5.57-4.52-7.34-7.83-1.77-3.31-2.66-7.11-2.66-11.4s.88-8.09,2.66-11.4c1.77-3.31,4.22-5.92,7.34-7.83,3.12-1.91,6.73-2.87,10.84-2.87s7.99.96,11.68,2.87c3.68,1.91,6.92,4.52,9.72,7.83,2.8,3.31,4.89,7.11,6.29,11.4-1.4,4.29-3.5,8.09-6.29,11.4Z"/>
    <path class="cls-4" d="M572.76,27.69c-5.5,0-10.19,1.12-14.06,3.36-3.87,2.24-7.11,5.29-9.72,9.16-2.21,3.28-4,7-5.4,11.11l-3.55-21.39h-26.29l5.03,26.57v53.14h26.01v-33.56c0-6.24,1.05-11.33,3.15-15.24,2.1-3.92,4.94-6.78,8.53-8.6,3.59-1.82,7.62-2.73,12.1-2.73,2.05,0,4.31.14,6.78.42,2.47.28,4.96.7,7.48,1.26v-22.38c-1.59-.37-3.26-.65-5.03-.84-1.77-.19-3.45-.28-5.03-.28Z"/>
    <path class="cls-8" d="M645.48,91.6c-6.25,0-10.58-1.19-13.01-3.57-2.43-2.38-3.64-6.55-3.64-12.52v-26.29h34.4v-19.3h-34.4V8.67h-14.82l-11.19,23.21-16.5,6.01v11.33h16.5v29.93c0,6.62,1.28,12.38,3.85,17.27,2.56,4.89,6.57,8.69,12.03,11.4,5.45,2.7,12.42,4.06,20.91,4.06,4.85,0,9.53-.47,14.06-1.4,4.52-.93,8.18-1.96,10.98-3.08v-19.72c-2.71,1.21-5.57,2.17-8.6,2.87-3.03.7-6.55,1.05-10.56,1.05Z"/>
    <path class="cls-5" d="M757.36,51.18c-3.64-7.46-8.81-13.24-15.52-17.34-6.71-4.1-14.73-6.15-24.05-6.15s-17.32,1.77-24.54,5.31c-7.23,3.54-12.89,8.44-16.99,14.68-4.1,6.25-6.15,13.52-6.15,21.82s2.14,15.9,6.43,22.23c4.29,6.34,10.19,11.28,17.69,14.82,7.5,3.54,16.01,5.31,25.52,5.31,8.02,0,15.5-1.03,22.45-3.08,6.94-2.05,13.12-4.94,18.53-8.67v-16.92c-4.75,2.98-10.12,5.29-16.08,6.92-5.97,1.63-11.94,2.45-17.9,2.45-6.53,0-12.05-.98-16.57-2.94-4.52-1.96-7.97-4.8-10.35-8.53-.72-1.14-1.32-2.35-1.83-3.64h64.83c0-10.07-1.82-18.83-5.45-26.29ZM697.08,61.11c.45-1.64,1.08-3.18,1.9-4.62,1.82-3.17,4.36-5.64,7.62-7.41,3.26-1.77,7.13-2.66,11.61-2.66,4.1,0,7.64.82,10.63,2.45,2.98,1.63,5.38,3.96,7.2,6.99.94,1.57,1.67,3.32,2.2,5.24h-41.16Z"/>
    <path class="cls-3" d="M835.81,27.97c-1.77-.19-3.45-.28-5.03-.28-5.5,0-10.19,1.12-14.06,3.36-3.87,2.24-7.11,5.29-9.72,9.16-2.21,3.28-4,7-5.4,11.11l-3.55-21.39h-26.29l5.03,26.57v53.14h26.01v-33.56c0-6.24,1.05-11.33,3.15-15.24,2.1-3.92,4.94-6.78,8.53-8.6,3.59-1.82,7.62-2.73,12.1-2.73,2.05,0,4.31.14,6.78.42,2.47.28,4.96.7,7.48,1.26v-22.38c-1.59-.37-3.26-.65-5.03-.84Z"/>
  </g>
</svg>